<svg xmlns="http://www.w3.org/2000/svg" fill="none" viewBox="0 0 596 103">
  <g clip-path="url(#a)">
    <path fill="#C22640" d="M83.37 12.11c2.21 9.37 7.09 17.63 13.11 25.15-4.72.79-11.81-.35-15.67-3.17a15.91 15.91 0 0 1-6.53-11.27l9.09-10.71Z"/>
    <path fill="#E64A60" d="M58.9 11.53a15.995 15.995 0 0 1 2.21-2.43c3.5-2.91 8.63-2.33 13.12-1.59 3.23.54 6.8 1.28 8.68 3.95 2 2.85 1.28 6.73.46 10.12-1.053 4.407-2.107 8.81-3.16 13.21l-5.27 3.32a100.76 100.76 0 0 1-24.57-15.85l8.53-10.73Z"/>
    <path fill="#EDEDED" d="M45 24.25c.25 1.72 6.31 5.12 7.83 6.21 2.85 2 5.72 4 8.63 5.93a51.613 51.613 0 0 0 8.8 4.62c1.43.59 8.29 4.74 9.2 3.8.326-.823.568-1.678.72-2.55.3-.87.69-1.86 1.06-2.71a22.216 22.216 0 0 0 1.81-4.3c.32-1.83-.42-1.77-2.33-2.41A27.126 27.126 0 0 1 76 30.98c-5.29-2.94-10.5-6-15.58-9.28a48.156 48.156 0 0 1-4-3.14c-.78-.62-3.06-3-4-3-1.35 0-2.89 3.46-3.65 4.37-.76.91-3.88 3.55-3.77 4.32Z"/>
    <mask id="b" width="40" height="30" x="44" y="15" maskUnits="userSpaceOnUse" style="mask-type:alpha">
      <path fill="#EDEDED" d="M45 24.25c.25 1.72 6.31 5.12 7.83 6.21 2.85 2 5.72 4 8.63 5.93a51.613 51.613 0 0 0 8.8 4.62c1.43.59 8.29 4.74 9.2 3.8.326-.824.568-1.678.72-2.55.3-.87.69-1.86 1.06-2.71a22.216 22.216 0 0 0 1.81-4.3c.32-1.83-.42-1.77-2.33-2.41A27.126 27.126 0 0 1 76 30.98c-5.29-2.94-10.5-6-15.58-9.28a48.156 48.156 0 0 1-4-3.14c-.78-.62-3.06-3-4-3-1.35 0-2.89 3.46-3.65 4.37-.76.91-3.88 3.55-3.77 4.32Z"/>
    </mask>
    <g mask="url(#b)">
      <path fill="#D4D5D6" d="M41 25.05 46.23 22S66.4 39.38 75.2 40.56c2 .26 4-.28 4.64-2.19.79-2.33 2.06-5.19 3.79-6.26l3.13 2.37-5.79 13.16-40-22.59"/>
    </g>
    <path fill="#E64A60" d="M85.05 17.72a69.53 69.53 0 0 0 11.43 19.54 20.37 20.37 0 0 1-4 .23 64.301 64.301 0 0 1-7.43-19.77Z"/>
    <path fill="#EDEDED" d="M89.76 35.2a5.221 5.221 0 0 1 1-1.9 5.472 5.472 0 0 1 1.55-1.52 5.601 5.601 0 0 1 2.08-.75 5.8 5.8 0 0 1 2.31-.12c.755.215 1.458.579 2.07 1.07.61.47.7 1.37 1.07 2 .46.595.8 1.275 1 2a5.744 5.744 0 0 1-.26 2.27 5.984 5.984 0 0 1-1 2.07 6.15 6.15 0 0 1-1.72 1.54c-.68.382-1.426.63-2.2.73a5.94 5.94 0 0 1-4.47-1.15 6.34 6.34 0 0 1-1.33-1.93 6.278 6.278 0 0 1-.93-2.14c0-.71.62-1.39.83-2.17Z"/>
    <mask id="c" width="13" height="13" x="88" y="30" maskUnits="userSpaceOnUse" style="mask-type:alpha">
      <path fill="#EDEDED" d="M89.76 35.2a5.221 5.221 0 0 1 1-1.9 5.472 5.472 0 0 1 1.55-1.52 5.601 5.601 0 0 1 2.08-.75 5.8 5.8 0 0 1 2.31-.12c.755.215 1.458.579 2.07 1.07.61.47.7 1.37 1.07 2 .46.595.8 1.275 1 2a5.744 5.744 0 0 1-.26 2.27 5.984 5.984 0 0 1-1 2.07 6.15 6.15 0 0 1-1.72 1.54c-.68.382-1.426.63-2.2.73a5.94 5.94 0 0 1-4.47-1.15 6.34 6.34 0 0 1-1.33-1.93 6.278 6.278 0 0 1-.93-2.14c0-.71.62-1.39.83-2.17Z"/>
    </mask>
    <g mask="url(#c)">
      <path fill="#D4D5D6" d="M90.09 41.73s4.88 1.48 7.39-1.93 1.34-11.63 1.34-11.63l7.68 4.24-3.69 15.57-12.72-6.25Z"/>
    </g>
    <path fill="#005C2D" fill-rule="evenodd" d="M30.48 16.56c-2.05-2.89-1.7-4.89-.4-6.73-1.92-.6-5-1.94-4.91-5.35A7.47 7.47 0 0 1 19-.02c0 .12.05.25.08.37-.07-.11-.13-.22-.19-.33a7.48 7.48 0 0 1-1.76 7.38c2.33 2.58.87 5.58-.24 7.28 2.18.56 3.74 1.86 4.06 5.38a8.92 8.92 0 0 1 6.89 4 8.9 8.9 0 0 1 2.64-7.5Z" clip-rule="evenodd"/>
    <path fill="#9D9B94" fill-rule="evenodd" d="M27.81 23.98A104.382 104.382 0 0 1 21 5.42a103.59 103.59 0 0 1 6.81 18.56Z" clip-rule="evenodd" opacity=".5" style="mix-blend-mode:multiply"/>
    <path fill="#C22640" d="M25.72 29.37a3.48 3.48 0 1 1 6.534-2.398 3.48 3.48 0 0 1-6.534 2.398Z"/>
    <path fill="#E7485D" d="M29.32 29.48a1.12 1.12 0 0 1 1.322-1.46 1.11 1.11 0 1 1-1.312 1.46h-.01Z" opacity=".7"/>
    <path fill="#E7485D" d="M28 25.36a3.47 3.47 0 0 1 4.21 1.62 4.328 4.328 0 0 0-.14-.48 3.48 3.48 0 0 0-6.53 2.4c.058.155.128.306.21.45A3.48 3.48 0 0 1 28 25.36Z"/>
    <path fill="#005C2D" fill-rule="evenodd" d="M38.3 24.05c1.88-3.15 3.91-3.65 6.2-3.2-.25-2.07-.27-5.55 3-6.88-.887-2.66-.33-5.217 1.67-7.67l-.32.23c.07-.11.15-.21.23-.32-2.54 1.92-5.11 2.397-7.71 1.43-1.44 3.22-4.92 3.09-7 2.78.38 2.3-.19 4.31-3.39 6.09a9.16 9.16 0 0 1-.92 8.19 9.17 9.17 0 0 1 8.24-.65Z" clip-rule="evenodd"/>
    <path fill="#9D9B94" fill-rule="evenodd" d="M30.15 24.64a107.728 107.728 0 0 1 14.7-14.25v.05a107.32 107.32 0 0 1-14.7 14.2Z" clip-rule="evenodd" opacity=".5" style="mix-blend-mode:multiply"/>
    <path fill="#005C2D" fill-rule="evenodd" d="M26.46 26.03a9.169 9.169 0 0 1-6-5.66c-3.59.72-5.33-.45-6.53-2.45-1.37 1.57-3.93 3.92-7.11 2.39-1.36 2.42-3.64 3.72-6.82 3.9l.39.09H0c3.12.6 5.197 2.19 6.23 4.77 3.35-1.09 5.59 1.61 6.77 3.34 1.45-1.82 3.32-2.75 6.79-1.56a9.21 9.21 0 0 1 6.67-4.82Z" clip-rule="evenodd"/>
    <path fill="#9D9B94" fill-rule="evenodd" d="M26.37 26.03a107.198 107.198 0 0 0-20.44-1.36 107.83 107.83 0 0 0 20.44 1.36Z" clip-rule="evenodd" opacity=".5" style="mix-blend-mode:multiply"/>
    <path fill="#C22640" d="M27.24 23.81a3.8 3.8 0 1 1 7.136-2.62 3.8 3.8 0 0 1-7.136 2.62Z"/>
    <path fill="#E7485D" d="M31.18 23.98a1.213 1.213 0 0 1 .72-1.57 1.22 1.22 0 1 1-.72 1.57Z" opacity=".7"/>
    <path fill="#E7485D" d="M29.87 19.98a3.8 3.8 0 0 1 4.65 1.76 5.07 5.07 0 0 0-.15-.52 3.8 3.8 0 1 0-7.13 2.61c.06.174.137.341.23.5a3.8 3.8 0 0 1 2.4-4.35Z"/>
    <path fill="#C22640" d="M21.11 26.06a3.801 3.801 0 0 1 6.81-3.287 3.8 3.8 0 1 1-6.81 3.287Z"/>
    <path fill="#E7485D" d="M25.05 26.18a1.209 1.209 0 0 1 .72-1.56 1.22 1.22 0 1 1 .84 2.29 1.21 1.21 0 0 1-1.56-.73Z" opacity=".7"/>
    <path fill="#E7485D" d="M23.74 22.21a3.8 3.8 0 0 1 4.65 1.77c-.04-.176-.09-.35-.15-.52a3.8 3.8 0 1 0-7.13 2.61c.06.17.137.335.23.49a3.78 3.78 0 0 1 2.4-4.35Z"/>
  </g>
  <path fill="#002D74" d="M108.743 83.651a14.037 14.037 0 0 1-5.494-1.053 14.094 14.094 0 0 1-4.654-3.118 14.18 14.18 0 0 1-3.082-4.69 14.235 14.235 0 0 1-1.025-5.527c-.022-1.9.332-3.786 1.043-5.547a14.321 14.321 0 0 1 3.094-4.71 14.241 14.241 0 0 1 4.666-3.143 14.184 14.184 0 0 1 5.512-1.084 13.736 13.736 0 0 1 6.063 1.143 13.804 13.804 0 0 1 4.961 3.685l-3.927 4.249a9.295 9.295 0 0 0-3.214-2.55 9.25 9.25 0 0 0-3.991-.915c-4.588 0-7.938 3.996-7.938 8.872 0 4.877 3.398 8.98 8.25 8.98a9.65 9.65 0 0 0 3.974-.95 9.69 9.69 0 0 0 3.231-2.514l3.819 3.778a13.98 13.98 0 0 1-5.053 3.871 13.914 13.914 0 0 1-6.235 1.223ZM132.052 83.651h-6.329V54.78h6.329v6.771c1.717-4.152 4.9-6.988 9.763-6.771v6.711h-.372c-5.536 0-9.391 3.621-9.391 10.972v11.19ZM174.899 54.718l-13.966 36.706h-6.413l3.051-7.76-11.961-28.946h6.737l8.166 21.377 7.842-21.377h6.544ZM195.002 83.59a11.201 11.201 0 0 1-5.273-1.247 11.271 11.271 0 0 1-4.082-3.58V91.46h-6.316V54.767h6.268v5.202a11.063 11.063 0 0 1 4.009-3.816 10.99 10.99 0 0 1 5.346-1.386c6.533 0 12.849 5.202 12.849 14.484s-6.22 14.34-12.801 14.34Zm-1.465-23.356c-4.275 0-8.046 3.513-8.046 8.92 0 5.408 3.771 8.933 8.046 8.933 4.275 0 7.89-3.416 7.89-8.932 0-5.517-3.603-8.92-7.89-8.92ZM221.71 60.754v13.603c0 2.414 1.201 3.452 3.386 3.452h2.534v5.673h-4.323c-4.6 0-7.866-2.064-7.866-8.135V60.754h-3.518v-5.456h3.518v-7.605h6.317v7.605h5.872v5.456h-5.92ZM247.565 83.651a14.213 14.213 0 0 1-5.58-.993 14.278 14.278 0 0 1-4.756-3.097 14.36 14.36 0 0 1-3.182-4.712 14.424 14.424 0 0 1-1.109-5.586 14.838 14.838 0 0 1 2.29-8.33 14.725 14.725 0 0 1 6.531-5.62 14.64 14.64 0 0 1 8.54-.991 14.686 14.686 0 0 1 7.634 3.975 14.807 14.807 0 0 1 4.119 7.586c.591 2.884.311 5.88-.802 8.603a14.773 14.773 0 0 1-5.45 6.684 14.657 14.657 0 0 1-8.235 2.481Zm0-23.368c-5.068 0-8.298 3.995-8.298 8.872 0 4.876 3.494 8.98 8.406 8.98 5.115 0 8.406-3.983 8.406-8.872a8.634 8.634 0 0 0-2.352-6.315 8.546 8.546 0 0 0-2.81-1.965 8.512 8.512 0 0 0-3.352-.7ZM322.776 83.651a14.205 14.205 0 0 1-5.582-.99 14.258 14.258 0 0 1-4.757-3.097 14.349 14.349 0 0 1-3.183-4.713 14.413 14.413 0 0 1-1.105-5.588 14.836 14.836 0 0 1 2.293-8.318 14.722 14.722 0 0 1 6.526-5.61 14.63 14.63 0 0 1 8.531-.989 14.678 14.678 0 0 1 7.625 3.972 14.8 14.8 0 0 1 4.115 7.576c.591 2.881.313 5.874-.799 8.594a14.75 14.75 0 0 1-5.44 6.68 14.644 14.644 0 0 1-8.224 2.483Zm0-23.368c-5.068 0-8.31 3.995-8.31 8.872 0 4.876 3.494 8.98 8.406 8.98 5.116 0 8.406-3.983 8.406-8.872 0-4.888-3.543-8.98-8.502-8.98ZM375.122 54.718c6.004 0 9.607 3.839 9.607 10.61v18.323h-6.316v-16.38c0-4.417-2.042-6.77-5.585-6.77-3.542 0-5.908 2.413-5.908 6.867v16.283h-6.317v-16.44c0-4.297-2.089-6.71-5.596-6.71-3.506 0-5.896 2.618-5.896 6.928V83.65h-6.317V54.682h6.317v4.828c1.777-2.414 4.179-4.828 8.406-4.828a8.634 8.634 0 0 1 4.818 1.184 8.698 8.698 0 0 1 3.384 3.644 11.283 11.283 0 0 1 4.109-3.57 11.218 11.218 0 0 1 5.294-1.222ZM273.912 77.821v3.223a.355.355 0 0 1-.18.326l-2.762 1.593a.324.324 0 0 1-.36 0l-2.762-1.593a.382.382 0 0 1-.193-.326v-3.199a.41.41 0 0 1 .193-.326l2.762-1.593a.32.32 0 0 1 .36 0l2.762 1.593a.371.371 0 0 1 .18.302ZM293.162 83.615a14.36 14.36 0 0 1-5.492-1.218 14.424 14.424 0 0 1-4.61-3.238 14.538 14.538 0 0 1-4.008-10.33 14.535 14.535 0 0 1 4.433-10.154 14.408 14.408 0 0 1 4.74-3.042 14.344 14.344 0 0 1 5.537-.987 13.705 13.705 0 0 1 6.034 1.232 13.779 13.779 0 0 1 4.895 3.753l-3.999 4.176a9.321 9.321 0 0 0-3.139-2.609 9.27 9.27 0 0 0-3.947-1.012c-4.599-.096-8.022 3.839-8.106 8.715-.084 4.877 3.219 9.04 8.07 9.137a9.663 9.663 0 0 0 3.957-.892 9.708 9.708 0 0 0 3.249-2.439l3.71 3.923a13.927 13.927 0 0 1-5.081 3.826 13.856 13.856 0 0 1-6.243 1.159Z"/>
  <path fill="#fff" d="M43.019 31 12 48.997v36.006L43.019 103l31.006-17.997V48.997L43.02 31Zm0 0L12 48.997v36.006L43.019 103l31.006-17.997V48.997L43.02 31Z"/>
  <path fill="#002D74" d="M43.019 31 12 48.997v36.006L43.019 103l31.006-17.997V48.997L43.02 31Zm-12.25 15.57h24.403l2.954 12.506h-30.19L30.77 46.57Zm9.812 37.419-5.272 4.925h-4.455L19.698 69.42l8.178-6.108 7.205 4.611v8.317l5.464 5.275.036 2.474Zm-3.603-8.256.817-7.834-2.666-6.989h15.803l-2.605 6.99.756 7.809h-6.076l-6.029.024ZM55.22 88.865h-4.395l-5.272-4.828v-2.414l5.464-5.275v-8.316l7.145-4.671 8.154 6.168L55.22 88.866Z"/>
  <path fill="url(#d)" d="M43.019 31v15.57h12.153l2.954 12.506H43.019v1.883h7.926l-2.606 6.989.756 7.809H43.02v27.219l31.006-17.997V48.973L43.02 31Zm12.213 57.938h-4.395l-5.272-4.828v-2.414l5.464-5.275v-8.317l7.145-4.67 8.154 6.167-11.096 19.337Z" style="mix-blend-mode:multiply"/>
  <path fill="url(#e)" d="m36.99 75.781.817-7.834-2.666-6.988h7.878v-1.883H27.936L30.77 46.57h12.249V31L12 48.997v36.006L43.019 103V75.781H36.99Zm3.603 8.256-5.272 4.925h-4.455L19.71 69.468l8.178-6.107 7.205 4.61v8.317l5.464 5.275.036 2.474Z" style="mix-blend-mode:multiply"/>
  <path fill="#898A8D" d="M421.272 31h-1.345v72h1.345V31ZM456.434 54.489h11.864c6.929 0 11.109 4.116 11.109 10.079v.084c0 6.76-5.224 10.26-11.733 10.26h-4.804v8.751h-6.388l-.048-29.174Zm11.456 14.714c3.182 0 5.056-1.92 5.056-4.43v-.072c0-2.885-1.994-4.418-5.188-4.418h-4.936v8.92h5.068ZM488.293 54.489h13.21c3.686 0 6.545 1.038 8.406 2.957a9.147 9.147 0 0 1 2.486 6.663v.085a9.078 9.078 0 0 1-1.582 5.576 8.998 8.998 0 0 1-4.627 3.464l7.085 10.43h-7.469l-6.221-9.343h-5.007v9.342h-6.389l.108-29.174Zm12.849 14.17c3.111 0 4.9-1.677 4.9-4.128v-.084c0-2.752-1.909-4.164-5.02-4.164h-6.34v8.377h6.46ZM523.395 54.489h6.388v29.174h-6.388V54.49ZM538.982 69.142v-.084a14.4 14.4 0 0 1 1.05-5.65 14.349 14.349 0 0 1 3.173-4.782 14.244 14.244 0 0 1 4.786-3.145 14.198 14.198 0 0 1 5.63-1.004 14.343 14.343 0 0 1 5.996.974 14.401 14.401 0 0 1 5.064 3.371l-3.927 4.55a10.35 10.35 0 0 0-7.205-3.174c-4.731 0-8.142 3.947-8.142 8.776v.084c0 4.828 3.326 8.872 8.142 8.872 3.206 0 5.164-1.292 7.373-3.308l3.927 3.984a14.334 14.334 0 0 1-5.174 3.855 14.272 14.272 0 0 1-6.33 1.19c-1.9.026-3.785-.332-5.544-1.052a14.169 14.169 0 0 1-4.696-3.144 14.241 14.241 0 0 1-3.103-4.735 14.306 14.306 0 0 1-1.02-5.578ZM573.904 54.489h21.892v5.71h-15.552v5.914h13.654v5.71h-13.69v6.13h15.756v5.71h-22.096l.036-29.174Z"/>
  <defs>
    <linearGradient id="d" x1="58.522" x2="58.522" y1="95.239" y2="38.592" gradientUnits="userSpaceOnUse">
      <stop stop-color="#002D74"/>
      <stop offset="1" stop-color="#002D74" stop-opacity="0"/>
    </linearGradient>
    <linearGradient id="e" x1="27.503" x2="27.503" y1="95.239" y2="38.592" gradientUnits="userSpaceOnUse">
      <stop stop-color="#002D74" stop-opacity="0"/>
      <stop offset="1" stop-color="#002D74"/>
    </linearGradient>
    <clipPath id="a">
      <path fill="#fff" d="M0 0h106.51v47.94H0z"/>
    </clipPath>
  </defs>
</svg>
